<?xml version="1.0" encoding="UTF-8" standalone="no"?>
<!DOCTYPE svg PUBLIC "-//W3C//DTD SVG 1.1//EN"
 "http://www.w3.org/Graphics/SVG/1.1/DTD/svg11.dtd">
<!-- Generated by graphviz version 2.49.1 (20210923.0004)
 -->
<!-- Pages: 1 -->
<svg width="1350pt" height="208pt"
 viewBox="0.00 0.00 1350.01 207.87" xmlns="http://www.w3.org/2000/svg" xmlns:xlink="http://www.w3.org/1999/xlink">
<g id="graph0" class="graph" transform="scale(1 1) rotate(0) translate(4 203.87)">
<polygon fill="white" stroke="transparent" points="-4,4 -4,-203.87 1346.01,-203.87 1346.01,4 -4,4"/>
<!-- master&#45;1 -->
<g id="node1" class="node">
<title>master&#45;1</title>
<g id="a_node1"><a xlink:title="Pods on the node:&#10;calico&#45;node&#45;2nnv2&#10;coredns&#45;78fcd69978&#45;4jgvj&#10;coredns&#45;78fcd69978&#45;vk4x9&#10;etcd&#45;master&#45;1&#10;haproxy&#45;master&#45;1&#10;keepalived&#45;master&#45;1&#10;kube&#45;apiserver&#45;master&#45;1&#10;kube&#45;controller&#45;manager&#45;master&#45;1&#10;kube&#45;proxy&#45;bnjn7&#10;kube&#45;scheduler&#45;master&#45;1">
<ellipse fill="none" stroke="black" cx="463.5" cy="-172.87" rx="58.5" ry="27"/>
<text text-anchor="middle" x="463.5" y="-176.67" font-family="Times,serif" font-size="14.00">master&#45;1</text>
<text text-anchor="middle" x="463.5" y="-161.67" font-family="Times,serif" font-size="14.00">192.168.2.1</text>
</a>
</g>
</g>
<!-- esxi4.cam.ciscolabs.com -->
<g id="node11" class="node">
<title>esxi4.cam.ciscolabs.com</title>
<ellipse fill="none" stroke="black" cx="702.5" cy="-91" rx="100.98" ry="18"/>
<text text-anchor="middle" x="702.5" y="-87.3" font-family="Times,serif" font-size="14.00">esxi4.cam.ciscolabs.com</text>
</g>
<!-- master&#45;1&#45;&gt;esxi4.cam.ciscolabs.com -->
<g id="edge1" class="edge">
<title>master&#45;1&#45;&gt;esxi4.cam.ciscolabs.com</title>
<path fill="none" stroke="blue" d="M506.96,-154.62C514.76,-151.66 522.85,-148.67 530.5,-146 567.61,-133.03 609.71,-119.78 642.97,-109.66"/>
<polygon fill="blue" stroke="blue" points="643.98,-113.01 652.54,-106.76 641.95,-106.31 643.98,-113.01"/>
</g>
<!-- eBGP Peer
node&#45;203 -->
<g id="node15" class="node">
<title>eBGP Peer
node&#45;203</title>
<polygon fill="none" stroke="black" points="319.5,-110 241.5,-110 241.5,-72 319.5,-72 319.5,-110"/>
<text text-anchor="middle" x="280.5" y="-94.8" font-family="Times,serif" font-size="14.00">eBGP Peer</text>
<text text-anchor="middle" x="280.5" y="-79.8" font-family="Times,serif" font-size="14.00">node&#45;203</text>
</g>
<!-- master&#45;1&#45;&gt;eBGP Peer
node&#45;203 -->
<g id="edge15" class="edge">
<title>master&#45;1&#45;&gt;eBGP Peer
node&#45;203</title>
<g id="a_edge15"><a xlink:title="eBGP Peering">
<path fill="none" stroke="red" stroke-dasharray="1,5" d="M421.97,-153.75C394.4,-141.71 358.1,-125.87 329.17,-113.24"/>
<polygon fill="red" stroke="red" points="330.24,-109.89 319.67,-109.1 327.44,-116.3 330.24,-109.89"/>
</a>
</g>
</g>
<!-- eBGP Peer
node&#45;204 -->
<g id="node16" class="node">
<title>eBGP Peer
node&#45;204</title>
<polygon fill="none" stroke="black" points="415.5,-110 337.5,-110 337.5,-72 415.5,-72 415.5,-110"/>
<text text-anchor="middle" x="376.5" y="-94.8" font-family="Times,serif" font-size="14.00">eBGP Peer</text>
<text text-anchor="middle" x="376.5" y="-79.8" font-family="Times,serif" font-size="14.00">node&#45;204</text>
</g>
<!-- master&#45;1&#45;&gt;eBGP Peer
node&#45;204 -->
<g id="edge16" class="edge">
<title>master&#45;1&#45;&gt;eBGP Peer
node&#45;204</title>
<g id="a_edge16"><a xlink:title="eBGP Peering">
<path fill="none" stroke="red" stroke-dasharray="1,5" d="M437.87,-148.34C427.14,-138.49 414.66,-127.03 403.76,-117.03"/>
<polygon fill="red" stroke="red" points="405.88,-114.23 396.15,-110.04 401.15,-119.38 405.88,-114.23"/>
</a>
</g>
</g>
<!-- master&#45;2 -->
<g id="node2" class="node">
<title>master&#45;2</title>
<g id="a_node2"><a xlink:title="Pods on the node:&#10;calico&#45;node&#45;479nk&#10;etcd&#45;master&#45;2&#10;haproxy&#45;master&#45;2&#10;keepalived&#45;master&#45;2&#10;kube&#45;apiserver&#45;master&#45;2&#10;kube&#45;controller&#45;manager&#45;master&#45;2&#10;kube&#45;proxy&#45;p8bj6&#10;kube&#45;scheduler&#45;master&#45;2">
<ellipse fill="none" stroke="black" cx="1013.51" cy="-172.87" rx="58.5" ry="27"/>
<text text-anchor="middle" x="1013.51" y="-176.67" font-family="Times,serif" font-size="14.00">master&#45;2</text>
<text text-anchor="middle" x="1013.51" y="-161.67" font-family="Times,serif" font-size="14.00">192.168.2.2</text>
</a>
</g>
</g>
<!-- master&#45;2&#45;&gt;esxi4.cam.ciscolabs.com -->
<g id="edge2" class="edge">
<title>master&#45;2&#45;&gt;esxi4.cam.ciscolabs.com</title>
<path fill="none" stroke="blue" d="M970.94,-154.34C962.9,-151.34 954.5,-148.41 946.5,-146 891.92,-129.53 829.09,-115.74 780.85,-106.22"/>
<polygon fill="blue" stroke="blue" points="781.28,-102.74 770.79,-104.25 779.93,-109.61 781.28,-102.74"/>
</g>
<!-- eBGP Peer
node&#45;201 -->
<g id="node17" class="node">
<title>eBGP Peer
node&#45;201</title>
<polygon fill="none" stroke="black" points="1004.5,-110 926.5,-110 926.5,-72 1004.5,-72 1004.5,-110"/>
<text text-anchor="middle" x="965.5" y="-94.8" font-family="Times,serif" font-size="14.00">eBGP Peer</text>
<text text-anchor="middle" x="965.5" y="-79.8" font-family="Times,serif" font-size="14.00">node&#45;201</text>
</g>
<!-- master&#45;2&#45;&gt;eBGP Peer
node&#45;201 -->
<g id="edge17" class="edge">
<title>master&#45;2&#45;&gt;eBGP Peer
node&#45;201</title>
<g id="a_edge17"><a xlink:title="eBGP Peering">
<path fill="none" stroke="red" stroke-dasharray="1,5" d="M998.31,-146.6C992.96,-137.69 986.92,-127.64 981.5,-118.62"/>
<polygon fill="red" stroke="red" points="984.48,-116.79 976.33,-110.02 978.48,-120.39 984.48,-116.79"/>
</a>
</g>
</g>
<!-- eBGP Peer
node&#45;202 -->
<g id="node18" class="node">
<title>eBGP Peer
node&#45;202</title>
<polygon fill="none" stroke="black" points="1100.51,-110 1022.51,-110 1022.51,-72 1100.51,-72 1100.51,-110"/>
<text text-anchor="middle" x="1061.51" y="-94.8" font-family="Times,serif" font-size="14.00">eBGP Peer</text>
<text text-anchor="middle" x="1061.51" y="-79.8" font-family="Times,serif" font-size="14.00">node&#45;202</text>
</g>
<!-- master&#45;2&#45;&gt;eBGP Peer
node&#45;202 -->
<g id="edge18" class="edge">
<title>master&#45;2&#45;&gt;eBGP Peer
node&#45;202</title>
<g id="a_edge18"><a xlink:title="eBGP Peering">
<path fill="none" stroke="red" stroke-dasharray="1,5" d="M1028.71,-146.6C1034.01,-137.69 1040.11,-127.64 1045.51,-118.62"/>
<polygon fill="red" stroke="red" points="1048.53,-120.39 1050.71,-110.02 1042.54,-116.77 1048.53,-120.39"/>
</a>
</g>
</g>
<!-- master&#45;3 -->
<g id="node3" class="node">
<title>master&#45;3</title>
<g id="a_node3"><a xlink:title="Pods on the node:&#10;calico&#45;node&#45;g5rx7&#10;etcd&#45;master&#45;3&#10;haproxy&#45;master&#45;3&#10;keepalived&#45;master&#45;3&#10;kube&#45;apiserver&#45;master&#45;3&#10;kube&#45;controller&#45;manager&#45;master&#45;3&#10;kube&#45;proxy&#45;7dtmj&#10;kube&#45;scheduler&#45;master&#45;3">
<ellipse fill="none" stroke="black" cx="58.5" cy="-172.87" rx="58.5" ry="27"/>
<text text-anchor="middle" x="58.5" y="-176.67" font-family="Times,serif" font-size="14.00">master&#45;3</text>
<text text-anchor="middle" x="58.5" y="-161.67" font-family="Times,serif" font-size="14.00">192.168.2.3</text>
</a>
</g>
</g>
<!-- esxi5 -->
<g id="node12" class="node">
<title>esxi5</title>
<ellipse fill="none" stroke="black" cx="553.5" cy="-91" rx="30" ry="18"/>
<text text-anchor="middle" x="553.5" y="-87.3" font-family="Times,serif" font-size="14.00">esxi5</text>
</g>
<!-- master&#45;3&#45;&gt;esxi5 -->
<g id="edge3" class="edge">
<title>master&#45;3&#45;&gt;esxi5</title>
<path fill="none" stroke="blue" d="M100.52,-153.82C108.69,-150.84 117.27,-148.05 125.5,-146 255.38,-113.64 291.77,-127.25 424.5,-110 454.85,-106.06 489.17,-101.25 514.77,-97.6"/>
<polygon fill="blue" stroke="blue" points="515.43,-101.04 524.83,-96.16 514.44,-94.11 515.43,-101.04"/>
</g>
<!-- master&#45;3&#45;&gt;eBGP Peer
node&#45;203 -->
<g id="edge19" class="edge">
<title>master&#45;3&#45;&gt;eBGP Peer
node&#45;203</title>
<g id="a_edge19"><a xlink:title="eBGP Peering">
<path fill="none" stroke="red" stroke-dasharray="1,5" d="M102.03,-154.82C109.83,-151.84 117.89,-148.79 125.5,-146 160.86,-133.02 201.03,-119.04 231.62,-108.56"/>
<polygon fill="red" stroke="red" points="232.86,-111.84 241.19,-105.29 230.6,-105.21 232.86,-111.84"/>
</a>
</g>
</g>
<!-- master&#45;3&#45;&gt;eBGP Peer
node&#45;204 -->
<g id="edge20" class="edge">
<title>master&#45;3&#45;&gt;eBGP Peer
node&#45;204</title>
<g id="a_edge20"><a xlink:title="eBGP Peering">
<path fill="none" stroke="red" stroke-dasharray="1,5" d="M100.98,-154.06C109.03,-151.09 117.45,-148.24 125.5,-146 210.74,-122.22 238.25,-133.36 327.67,-109.95"/>
<polygon fill="red" stroke="red" points="328.65,-113.31 337.4,-107.33 326.83,-106.55 328.65,-113.31"/>
</a>
</g>
</g>
<!-- worker&#45;1 -->
<g id="node4" class="node">
<title>worker&#45;1</title>
<g id="a_node4"><a xlink:title="Pods on the node:&#10;calico&#45;node&#45;gnc84&#10;dashboard&#45;metrics&#45;scraper&#45;856586f554&#45;ncskt&#10;frontend&#45;d7f77b577&#45;fhsv8&#10;frontend&#45;d7f77b577&#45;ps7hp&#10;kube&#45;proxy&#45;dqn74">
<ellipse fill="none" stroke="black" cx="733.5" cy="-172.87" rx="58.5" ry="27"/>
<text text-anchor="middle" x="733.5" y="-176.67" font-family="Times,serif" font-size="14.00">worker&#45;1</text>
<text text-anchor="middle" x="733.5" y="-161.67" font-family="Times,serif" font-size="14.00">192.168.2.4</text>
</a>
</g>
</g>
<!-- worker&#45;1&#45;&gt;esxi5 -->
<g id="edge4" class="edge">
<title>worker&#45;1&#45;&gt;esxi5</title>
<path fill="none" stroke="blue" d="M691.76,-153.8C663.65,-141.57 625.77,-124.98 592.5,-110 590.32,-109.02 588.07,-108 585.81,-106.97"/>
<polygon fill="blue" stroke="blue" points="587.11,-103.72 576.56,-102.73 584.19,-110.08 587.11,-103.72"/>
</g>
<!-- worker&#45;1&#45;&gt;eBGP Peer
node&#45;201 -->
<g id="edge21" class="edge">
<title>worker&#45;1&#45;&gt;eBGP Peer
node&#45;201</title>
<g id="a_edge21"><a xlink:title="eBGP Peering">
<path fill="none" stroke="red" stroke-dasharray="1,5" d="M776.99,-154.7C784.79,-151.73 792.87,-148.72 800.5,-146 839.22,-132.2 883.52,-117.77 916.46,-107.31"/>
<polygon fill="red" stroke="red" points="917.83,-110.55 926.3,-104.19 915.71,-103.88 917.83,-110.55"/>
</a>
</g>
</g>
<!-- worker&#45;1&#45;&gt;eBGP Peer
node&#45;202 -->
<g id="edge22" class="edge">
<title>worker&#45;1&#45;&gt;eBGP Peer
node&#45;202</title>
<g id="a_edge22"><a xlink:title="eBGP Peering">
<path fill="none" stroke="red" stroke-dasharray="1,5" d="M775.6,-154.14C783.76,-151.12 792.32,-148.24 800.5,-146 890.01,-121.42 918.88,-134.06 1012.51,-109.97"/>
<polygon fill="red" stroke="red" points="1013.63,-113.29 1022.41,-107.36 1011.85,-106.52 1013.63,-113.29"/>
</a>
</g>
</g>
<!-- worker&#45;2 -->
<g id="node5" class="node">
<title>worker&#45;2</title>
<g id="a_node5"><a xlink:title="Pods on the node:&#10;calico&#45;node&#45;wx5k7&#10;kube&#45;proxy&#45;tkxhk&#10;redis&#45;slave&#45;5ff8876b77&#45;blrpb&#10;redis&#45;slave&#45;5ff8876b77&#45;cm44w">
<ellipse fill="none" stroke="black" cx="193.5" cy="-172.87" rx="58.5" ry="27"/>
<text text-anchor="middle" x="193.5" y="-176.67" font-family="Times,serif" font-size="14.00">worker&#45;2</text>
<text text-anchor="middle" x="193.5" y="-161.67" font-family="Times,serif" font-size="14.00">192.168.2.5</text>
</a>
</g>
</g>
<!-- worker&#45;2&#45;&gt;esxi5 -->
<g id="edge5" class="edge">
<title>worker&#45;2&#45;&gt;esxi5</title>
<path fill="none" stroke="blue" d="M235.99,-154.1C244.04,-151.13 252.46,-148.27 260.5,-146 349.77,-120.78 457.76,-104.39 514.43,-96.84"/>
<polygon fill="blue" stroke="blue" points="514.93,-100.31 524.39,-95.53 514.02,-93.37 514.93,-100.31"/>
</g>
<!-- worker&#45;2&#45;&gt;eBGP Peer
node&#45;203 -->
<g id="edge23" class="edge">
<title>worker&#45;2&#45;&gt;eBGP Peer
node&#45;203</title>
<g id="a_edge23"><a xlink:title="eBGP Peering">
<path fill="none" stroke="red" stroke-dasharray="1,5" d="M219.13,-148.34C229.86,-138.49 242.34,-127.03 253.24,-117.03"/>
<polygon fill="red" stroke="red" points="255.85,-119.38 260.85,-110.04 251.12,-114.23 255.85,-119.38"/>
</a>
</g>
</g>
<!-- worker&#45;2&#45;&gt;eBGP Peer
node&#45;204 -->
<g id="edge24" class="edge">
<title>worker&#45;2&#45;&gt;eBGP Peer
node&#45;204</title>
<g id="a_edge24"><a xlink:title="eBGP Peering">
<path fill="none" stroke="red" stroke-dasharray="1,5" d="M235.03,-153.75C262.6,-141.71 298.9,-125.87 327.83,-113.24"/>
<polygon fill="red" stroke="red" points="329.56,-116.3 337.33,-109.1 326.76,-109.89 329.56,-116.3"/>
</a>
</g>
</g>
<!-- worker&#45;3 -->
<g id="node6" class="node">
<title>worker&#45;3</title>
<g id="a_node6"><a xlink:title="Pods on the node:&#10;calico&#45;node&#45;5cmhf&#10;frontend&#45;d7f77b577&#45;hdvj8&#10;frontend&#45;d7f77b577&#45;lv6vc&#10;kube&#45;proxy&#45;42m9c&#10;redis&#45;master&#45;84777845f&#45;tqlmc">
<ellipse fill="none" stroke="black" cx="1148.51" cy="-172.87" rx="58.5" ry="27"/>
<text text-anchor="middle" x="1148.51" y="-176.67" font-family="Times,serif" font-size="14.00">worker&#45;3</text>
<text text-anchor="middle" x="1148.51" y="-161.67" font-family="Times,serif" font-size="14.00">192.168.2.6</text>
</a>
</g>
</g>
<!-- worker&#45;3&#45;&gt;esxi4.cam.ciscolabs.com -->
<g id="edge6" class="edge">
<title>worker&#45;3&#45;&gt;esxi4.cam.ciscolabs.com</title>
<path fill="none" stroke="blue" d="M1106.41,-153.97C1098.31,-150.97 1089.71,-148.14 1081.51,-146 988.71,-121.81 880.14,-107.74 803.04,-100.06"/>
<polygon fill="blue" stroke="blue" points="803.14,-96.55 792.85,-99.06 802.46,-103.52 803.14,-96.55"/>
</g>
<!-- worker&#45;3&#45;&gt;eBGP Peer
node&#45;201 -->
<g id="edge25" class="edge">
<title>worker&#45;3&#45;&gt;eBGP Peer
node&#45;201</title>
<g id="a_edge25"><a xlink:title="eBGP Peering">
<path fill="none" stroke="red" stroke-dasharray="1,5" d="M1107.01,-153.75C1079.41,-141.71 1043.11,-125.87 1014.21,-113.24"/>
<polygon fill="red" stroke="red" points="1015.28,-109.89 1004.71,-109.1 1012.48,-116.3 1015.28,-109.89"/>
</a>
</g>
</g>
<!-- worker&#45;3&#45;&gt;eBGP Peer
node&#45;202 -->
<g id="edge26" class="edge">
<title>worker&#45;3&#45;&gt;eBGP Peer
node&#45;202</title>
<g id="a_edge26"><a xlink:title="eBGP Peering">
<path fill="none" stroke="red" stroke-dasharray="1,5" d="M1122.91,-148.34C1112.11,-138.49 1099.61,-127.03 1088.71,-117.03"/>
<polygon fill="red" stroke="red" points="1090.84,-114.23 1081.11,-110.04 1086.1,-119.39 1090.84,-114.23"/>
</a>
</g>
</g>
<!-- worker&#45;4 -->
<g id="node7" class="node">
<title>worker&#45;4</title>
<g id="a_node7"><a xlink:title="Pods on the node:&#10;busybox&#45;6c446876c6&#45;9gfxz&#10;calico&#45;kube&#45;controllers&#45;58497c65d5&#45;4z9k9&#10;calico&#45;node&#45;cl2tw&#10;kube&#45;proxy&#45;djlwt&#10;redis&#45;slave&#45;5ff8876b77&#45;jr6w4">
<ellipse fill="none" stroke="black" cx="328.5" cy="-172.87" rx="58.5" ry="27"/>
<text text-anchor="middle" x="328.5" y="-176.67" font-family="Times,serif" font-size="14.00">worker&#45;4</text>
<text text-anchor="middle" x="328.5" y="-161.67" font-family="Times,serif" font-size="14.00">192.168.2.7</text>
</a>
</g>
</g>
<!-- worker&#45;4&#45;&gt;esxi5 -->
<g id="edge7" class="edge">
<title>worker&#45;4&#45;&gt;esxi5</title>
<path fill="none" stroke="blue" d="M372.02,-154.78C379.82,-151.8 387.88,-148.77 395.5,-146 437.41,-130.75 486.01,-114.33 518.13,-103.65"/>
<polygon fill="blue" stroke="blue" points="519.55,-106.87 527.94,-100.39 517.35,-100.22 519.55,-106.87"/>
</g>
<!-- worker&#45;4&#45;&gt;eBGP Peer
node&#45;203 -->
<g id="edge27" class="edge">
<title>worker&#45;4&#45;&gt;eBGP Peer
node&#45;203</title>
<g id="a_edge27"><a xlink:title="eBGP Peering">
<path fill="none" stroke="red" stroke-dasharray="1,5" d="M313.31,-146.6C307.96,-137.69 301.92,-127.64 296.5,-118.62"/>
<polygon fill="red" stroke="red" points="299.48,-116.79 291.33,-110.02 293.48,-120.39 299.48,-116.79"/>
</a>
</g>
</g>
<!-- worker&#45;4&#45;&gt;eBGP Peer
node&#45;204 -->
<g id="edge28" class="edge">
<title>worker&#45;4&#45;&gt;eBGP Peer
node&#45;204</title>
<g id="a_edge28"><a xlink:title="eBGP Peering">
<path fill="none" stroke="red" stroke-dasharray="1,5" d="M343.69,-146.6C349.04,-137.69 355.08,-127.64 360.5,-118.62"/>
<polygon fill="red" stroke="red" points="363.52,-120.39 365.67,-110.02 357.52,-116.79 363.52,-120.39"/>
</a>
</g>
</g>
<!-- worker&#45;5 -->
<g id="node8" class="node">
<title>worker&#45;5</title>
<g id="a_node8"><a xlink:title="Pods on the node:&#10;calico&#45;node&#45;2d47r&#10;calico&#45;typha&#45;68857595fc&#45;lr6d5&#10;kube&#45;proxy&#45;tdwl5&#10;redis&#45;master&#45;84777845f&#45;fn2kr">
<ellipse fill="none" stroke="black" cx="1283.51" cy="-172.87" rx="58.5" ry="27"/>
<text text-anchor="middle" x="1283.51" y="-176.67" font-family="Times,serif" font-size="14.00">worker&#45;5</text>
<text text-anchor="middle" x="1283.51" y="-161.67" font-family="Times,serif" font-size="14.00">192.168.2.8</text>
</a>
</g>
</g>
<!-- worker&#45;5&#45;&gt;esxi4.cam.ciscolabs.com -->
<g id="edge8" class="edge">
<title>worker&#45;5&#45;&gt;esxi4.cam.ciscolabs.com</title>
<path fill="none" stroke="blue" d="M1241.91,-153.85C1233.61,-150.83 1224.91,-148.02 1216.51,-146 1177.21,-136.52 938.12,-113.59 800.3,-100.87"/>
<polygon fill="blue" stroke="blue" points="800.43,-97.37 790.15,-99.94 799.79,-104.34 800.43,-97.37"/>
</g>
<!-- worker&#45;5&#45;&gt;eBGP Peer
node&#45;201 -->
<g id="edge29" class="edge">
<title>worker&#45;5&#45;&gt;eBGP Peer
node&#45;201</title>
<g id="a_edge29"><a xlink:title="eBGP Peering">
<path fill="none" stroke="red" stroke-dasharray="1,5" d="M1241.01,-154.06C1233.01,-151.09 1224.51,-148.24 1216.51,-146 1131.21,-122.22 1103.71,-133.36 1014.31,-109.95"/>
<polygon fill="red" stroke="red" points="1015.18,-106.56 1004.61,-107.33 1013.35,-113.32 1015.18,-106.56"/>
</a>
</g>
</g>
<!-- worker&#45;5&#45;&gt;eBGP Peer
node&#45;202 -->
<g id="edge30" class="edge">
<title>worker&#45;5&#45;&gt;eBGP Peer
node&#45;202</title>
<g id="a_edge30"><a xlink:title="eBGP Peering">
<path fill="none" stroke="red" stroke-dasharray="1,5" d="M1240.01,-154.82C1232.21,-151.84 1224.11,-148.79 1216.51,-146 1181.11,-133.02 1141.01,-119.04 1110.41,-108.56"/>
<polygon fill="red" stroke="red" points="1111.4,-105.2 1100.81,-105.29 1109.15,-111.83 1111.4,-105.2"/>
</a>
</g>
</g>
<!-- worker&#45;6 -->
<g id="node9" class="node">
<title>worker&#45;6</title>
<g id="a_node9"><a xlink:title="Pods on the node:&#10;calico&#45;node&#45;rm98z&#10;frontend&#45;d7f77b577&#45;cvqp4&#10;frontend&#45;d7f77b577&#45;xvkqz&#10;kube&#45;proxy&#45;tj47m&#10;redis&#45;slave&#45;5ff8876b77&#45;ncrtz">
<ellipse fill="none" stroke="black" cx="598.5" cy="-172.87" rx="58.5" ry="27"/>
<text text-anchor="middle" x="598.5" y="-176.67" font-family="Times,serif" font-size="14.00">worker&#45;6</text>
<text text-anchor="middle" x="598.5" y="-161.67" font-family="Times,serif" font-size="14.00">192.168.2.9</text>
</a>
</g>
</g>
<!-- worker&#45;6&#45;&gt;esxi4.cam.ciscolabs.com -->
<g id="edge9" class="edge">
<title>worker&#45;6&#45;&gt;esxi4.cam.ciscolabs.com</title>
<path fill="none" stroke="blue" d="M627.75,-149.41C641.81,-138.61 658.64,-125.69 672.76,-114.84"/>
<polygon fill="blue" stroke="blue" points="674.93,-117.59 680.73,-108.72 670.67,-112.03 674.93,-117.59"/>
</g>
<!-- worker&#45;6&#45;&gt;eBGP Peer
node&#45;203 -->
<g id="edge31" class="edge">
<title>worker&#45;6&#45;&gt;eBGP Peer
node&#45;203</title>
<g id="a_edge31"><a xlink:title="eBGP Peering">
<path fill="none" stroke="red" stroke-dasharray="1,5" d="M556.02,-154.06C547.97,-151.09 539.55,-148.24 531.5,-146 446.26,-122.22 418.75,-133.36 329.33,-109.95"/>
<polygon fill="red" stroke="red" points="330.17,-106.55 319.6,-107.33 328.35,-113.31 330.17,-106.55"/>
</a>
</g>
</g>
<!-- worker&#45;6&#45;&gt;eBGP Peer
node&#45;204 -->
<g id="edge32" class="edge">
<title>worker&#45;6&#45;&gt;eBGP Peer
node&#45;204</title>
<g id="a_edge32"><a xlink:title="eBGP Peering">
<path fill="none" stroke="red" stroke-dasharray="1,5" d="M554.97,-154.82C547.17,-151.84 539.11,-148.79 531.5,-146 496.14,-133.02 455.97,-119.04 425.38,-108.56"/>
<polygon fill="red" stroke="red" points="426.4,-105.21 415.81,-105.29 424.14,-111.84 426.4,-105.21"/>
</a>
</g>
</g>
<!-- worker&#45;7 -->
<g id="node10" class="node">
<title>worker&#45;7</title>
<g id="a_node10"><a xlink:title="Pods on the node:&#10;calico&#45;node&#45;jcrg8&#10;kube&#45;proxy&#45;5g8lc&#10;kubernetes&#45;dashboard&#45;78c79f97b4&#45;nntv8&#10;vkaci">
<ellipse fill="none" stroke="black" cx="873.5" cy="-172.87" rx="63.5" ry="27"/>
<text text-anchor="middle" x="873.5" y="-176.67" font-family="Times,serif" font-size="14.00">worker&#45;7</text>
<text text-anchor="middle" x="873.5" y="-161.67" font-family="Times,serif" font-size="14.00">192.168.2.10</text>
</a>
</g>
</g>
<!-- worker&#45;7&#45;&gt;esxi5 -->
<g id="edge10" class="edge">
<title>worker&#45;7&#45;&gt;esxi5</title>
<path fill="none" stroke="blue" d="M827.78,-154.1C819.14,-151.12 810.11,-148.27 801.5,-146 710.36,-121.97 682.51,-137.99 592.5,-110 589.92,-109.2 587.29,-108.26 584.67,-107.25"/>
<polygon fill="blue" stroke="blue" points="585.95,-103.99 575.38,-103.31 583.22,-110.44 585.95,-103.99"/>
</g>
<!-- worker&#45;7&#45;&gt;eBGP Peer
node&#45;201 -->
<g id="edge33" class="edge">
<title>worker&#45;7&#45;&gt;eBGP Peer
node&#45;201</title>
<g id="a_edge33"><a xlink:title="eBGP Peering">
<path fill="none" stroke="red" stroke-dasharray="1,5" d="M900.61,-148.34C912.06,-138.39 925.41,-126.81 937.01,-116.73"/>
<polygon fill="red" stroke="red" points="939.46,-119.24 944.72,-110.04 934.87,-113.95 939.46,-119.24"/>
</a>
</g>
</g>
<!-- worker&#45;7&#45;&gt;eBGP Peer
node&#45;202 -->
<g id="edge34" class="edge">
<title>worker&#45;7&#45;&gt;eBGP Peer
node&#45;202</title>
<g id="a_edge34"><a xlink:title="eBGP Peering">
<path fill="none" stroke="red" stroke-dasharray="1,5" d="M917.58,-153.14C946.27,-140.95 983.71,-125.05 1013.21,-112.52"/>
<polygon fill="red" stroke="red" points="1014.67,-115.7 1022.51,-108.58 1011.94,-109.26 1014.67,-115.7"/>
</a>
</g>
</g>
<!-- node&#45;203 -->
<g id="node13" class="node">
<title>node&#45;203</title>
<polygon fill="none" stroke="black" points="619,-36 550,-36 550,0 619,0 619,-36"/>
<text text-anchor="middle" x="584.5" y="-14.3" font-family="Times,serif" font-size="14.00">node&#45;203</text>
</g>
<!-- esxi4.cam.ciscolabs.com&#45;&gt;node&#45;203 -->
<g id="edge11" class="edge">
<title>esxi4.cam.ciscolabs.com&#45;&gt;node&#45;203</title>
<g id="a_edge11"><a xlink:title="eth1/1">
<path fill="none" stroke="blue" d="M675.13,-73.53C659.25,-63.97 639.02,-51.8 621.7,-41.38"/>
<polygon fill="blue" stroke="blue" points="623.32,-38.28 612.95,-36.12 619.71,-44.27 623.32,-38.28"/>
</a>
</g>
</g>
<!-- node&#45;204 -->
<g id="node14" class="node">
<title>node&#45;204</title>
<polygon fill="none" stroke="black" points="721,-36 652,-36 652,0 721,0 721,-36"/>
<text text-anchor="middle" x="686.5" y="-14.3" font-family="Times,serif" font-size="14.00">node&#45;204</text>
</g>
<!-- esxi4.cam.ciscolabs.com&#45;&gt;node&#45;204 -->
<g id="edge12" class="edge">
<title>esxi4.cam.ciscolabs.com&#45;&gt;node&#45;204</title>
<g id="a_edge12"><a xlink:title="eth1/1">
<path fill="none" stroke="blue" d="M698.63,-72.81C696.82,-64.79 694.62,-55.05 692.6,-46.07"/>
<polygon fill="blue" stroke="blue" points="695.95,-45.02 690.34,-36.03 689.12,-46.55 695.95,-45.02"/>
</a>
</g>
</g>
<!-- esxi5&#45;&gt;node&#45;203 -->
<g id="edge13" class="edge">
<title>esxi5&#45;&gt;node&#45;203</title>
<g id="a_edge13"><a xlink:title="eth1/3&#10;eth1/2">
<path fill="none" stroke="blue" d="M560.85,-73.17C564.46,-64.9 568.9,-54.72 572.96,-45.44"/>
<polygon fill="blue" stroke="blue" points="576.2,-46.76 576.99,-36.2 569.78,-43.96 576.2,-46.76"/>
</a>
</g>
</g>
<!-- esxi5&#45;&gt;node&#45;204 -->
<g id="edge14" class="edge">
<title>esxi5&#45;&gt;node&#45;204</title>
<g id="a_edge14"><a xlink:title="eth1/2">
<path fill="none" stroke="blue" d="M575.16,-78.44C594.2,-68.27 622.42,-53.21 645.69,-40.79"/>
<polygon fill="blue" stroke="blue" points="647.48,-43.8 654.65,-36 644.18,-37.63 647.48,-43.8"/>
</a>
</g>
</g>
</g>
</svg>
