<?xml version="1.0" encoding="UTF-8" standalone="no"?>
<!DOCTYPE svg PUBLIC "-//W3C//DTD SVG 1.1//EN"
 "http://www.w3.org/Graphics/SVG/1.1/DTD/svg11.dtd">
<!-- Generated by graphviz version 2.49.1 (20210923.0004)
 -->
<!-- Pages: 1 -->
<svg width="308pt" height="319pt"
 viewBox="0.00 0.00 307.50 318.72" xmlns="http://www.w3.org/2000/svg" xmlns:xlink="http://www.w3.org/1999/xlink">
<g id="graph0" class="graph" transform="scale(1 1) rotate(0) translate(4 314.72)">
<polygon fill="white" stroke="transparent" points="-4,4 -4,-314.72 303.5,-314.72 303.5,4 -4,4"/>
<!-- vkaci -->
<g id="node1" class="node">
<title>vkaci</title>
<ellipse fill="none" stroke="black" cx="164.5" cy="-273.22" rx="74.4" ry="37.5"/>
<text text-anchor="middle" x="164.5" y="-284.52" font-family="Times,serif" font-size="14.00">vkaci</text>
<text text-anchor="middle" x="164.5" y="-269.52" font-family="Times,serif" font-size="14.00"> ip=10.1.40.195</text>
<text text-anchor="middle" x="164.5" y="-254.52" font-family="Times,serif" font-size="14.00"> ns=default</text>
</g>
<!-- worker&#45;7 -->
<g id="node2" class="node">
<title>worker&#45;7</title>
<g id="a_node2"><a xlink:title="Pods on the node:&#10;calico&#45;node&#45;jcrg8&#10;kube&#45;proxy&#45;5g8lc&#10;kubernetes&#45;dashboard&#45;78c79f97b4&#45;nntv8&#10;vkaci">
<ellipse fill="none" stroke="black" cx="164.5" cy="-172.87" rx="63.5" ry="27"/>
<text text-anchor="middle" x="164.5" y="-176.67" font-family="Times,serif" font-size="14.00">worker&#45;7</text>
<text text-anchor="middle" x="164.5" y="-161.67" font-family="Times,serif" font-size="14.00">192.168.2.10</text>
</a>
</g>
</g>
<!-- vkaci&#45;&gt;worker&#45;7 -->
<g id="edge6" class="edge">
<title>vkaci&#45;&gt;worker&#45;7</title>
<path fill="none" stroke="black" d="M164.5,-235.6C164.5,-227.23 164.5,-218.33 164.5,-209.98"/>
<polygon fill="black" stroke="black" points="168,-209.78 164.5,-199.78 161,-209.78 168,-209.78"/>
</g>
<!-- esxi5 -->
<g id="node3" class="node">
<title>esxi5</title>
<ellipse fill="none" stroke="black" cx="77.5" cy="-91" rx="30" ry="18"/>
<text text-anchor="middle" x="77.5" y="-87.3" font-family="Times,serif" font-size="14.00">esxi5</text>
</g>
<!-- worker&#45;7&#45;&gt;esxi5 -->
<g id="edge1" class="edge">
<title>worker&#45;7&#45;&gt;esxi5</title>
<path fill="none" stroke="blue" d="M138.4,-147.91C126.44,-136.93 112.39,-124.03 100.79,-113.38"/>
<polygon fill="blue" stroke="blue" points="102.95,-110.61 93.22,-106.43 98.22,-115.77 102.95,-110.61"/>
</g>
<!-- eBGP Peer
node&#45;201 -->
<g id="node6" class="node">
<title>eBGP Peer
node&#45;201</title>
<polygon fill="none" stroke="black" points="203.5,-110 125.5,-110 125.5,-72 203.5,-72 203.5,-110"/>
<text text-anchor="middle" x="164.5" y="-94.8" font-family="Times,serif" font-size="14.00">eBGP Peer</text>
<text text-anchor="middle" x="164.5" y="-79.8" font-family="Times,serif" font-size="14.00">node&#45;201</text>
</g>
<!-- worker&#45;7&#45;&gt;eBGP Peer
node&#45;201 -->
<g id="edge4" class="edge">
<title>worker&#45;7&#45;&gt;eBGP Peer
node&#45;201</title>
<g id="a_edge4"><a xlink:title="eBGP Peering">
<path fill="none" stroke="red" stroke-dasharray="1,5" d="M164.5,-145.72C164.5,-137.53 164.5,-128.46 164.5,-120.14"/>
<polygon fill="red" stroke="red" points="168,-120.12 164.5,-110.12 161,-120.12 168,-120.12"/>
</a>
</g>
</g>
<!-- eBGP Peer
node&#45;202 -->
<g id="node7" class="node">
<title>eBGP Peer
node&#45;202</title>
<polygon fill="none" stroke="black" points="299.5,-110 221.5,-110 221.5,-72 299.5,-72 299.5,-110"/>
<text text-anchor="middle" x="260.5" y="-94.8" font-family="Times,serif" font-size="14.00">eBGP Peer</text>
<text text-anchor="middle" x="260.5" y="-79.8" font-family="Times,serif" font-size="14.00">node&#45;202</text>
</g>
<!-- worker&#45;7&#45;&gt;eBGP Peer
node&#45;202 -->
<g id="edge5" class="edge">
<title>worker&#45;7&#45;&gt;eBGP Peer
node&#45;202</title>
<g id="a_edge5"><a xlink:title="eBGP Peering">
<path fill="none" stroke="red" stroke-dasharray="1,5" d="M192.53,-148.55C204.6,-138.51 218.73,-126.75 230.97,-116.57"/>
<polygon fill="red" stroke="red" points="233.25,-119.23 238.7,-110.14 228.77,-113.84 233.25,-119.23"/>
</a>
</g>
</g>
<!-- node&#45;203 -->
<g id="node4" class="node">
<title>node&#45;203</title>
<polygon fill="none" stroke="black" points="69,-36 0,-36 0,0 69,0 69,-36"/>
<text text-anchor="middle" x="34.5" y="-14.3" font-family="Times,serif" font-size="14.00">node&#45;203</text>
</g>
<!-- esxi5&#45;&gt;node&#45;203 -->
<g id="edge2" class="edge">
<title>esxi5&#45;&gt;node&#45;203</title>
<g id="a_edge2"><a xlink:title="eth1/3&#10;eth1/2">
<path fill="none" stroke="blue" d="M67.74,-73.89C62.51,-65.24 55.93,-54.38 50.01,-44.61"/>
<polygon fill="blue" stroke="blue" points="52.99,-42.78 44.82,-36.04 47,-46.4 52.99,-42.78"/>
</a>
</g>
</g>
<!-- node&#45;204 -->
<g id="node5" class="node">
<title>node&#45;204</title>
<polygon fill="none" stroke="black" points="156,-36 87,-36 87,0 156,0 156,-36"/>
<text text-anchor="middle" x="121.5" y="-14.3" font-family="Times,serif" font-size="14.00">node&#45;204</text>
</g>
<!-- esxi5&#45;&gt;node&#45;204 -->
<g id="edge3" class="edge">
<title>esxi5&#45;&gt;node&#45;204</title>
<g id="a_edge3"><a xlink:title="eth1/2">
<path fill="none" stroke="blue" d="M87.48,-73.89C92.84,-65.24 99.57,-54.38 105.63,-44.61"/>
<polygon fill="blue" stroke="blue" points="108.65,-46.38 110.94,-36.04 102.7,-42.7 108.65,-46.38"/>
</a>
</g>
</g>
</g>
</svg>
