<?xml version="1.0" encoding="iso-8859-1"?>
<!-- Generator: Adobe Illustrator 19.0.0, SVG Export Plug-In . SVG Version: 6.00 Build 0)  -->
<svg version="1.1" id="Layer_1" xmlns="http://www.w3.org/2000/svg" xmlns:xlink="http://www.w3.org/1999/xlink" x="0px" y="0px"
	 viewBox="0 0 291.682 291.682" style="enable-background:new 0 0 291.682 291.682;" xml:space="preserve">
<g>
	<path style="fill:#26A6D1;" d="M7.259,165.403l119.532,119.058c9.665,9.628,25.311,9.628,34.966,0l117.554-116.049
		c12.354-12.318,12.354-39.343,12.354-45.151V24.773C291.666,11.169,281.773,0,268.124,0L163.936,0.146
		c-16.485,0-28.839,4.103-41.203,16.421L7.259,130.574C-2.397,140.193-2.397,155.784,7.259,165.403z"/>
	<path style="fill:#156E8D;" d="M232.401,82.077c-12.573,0-22.794-10.221-22.794-22.794s10.221-22.794,22.794-22.794
		c12.573,0,22.794,10.23,22.794,22.794C255.195,71.856,244.974,82.077,232.401,82.077z"/>
	<path style="fill:#93D3E8;" d="M164.985,75.54c-3.547-3.538-9.273-3.538-12.801,0l-76.761,76.752
		c-3.538,3.538-3.538,9.264,0,12.801c3.538,3.529,9.264,3.529,12.792,0l76.771-76.771C168.504,84.803,168.504,79.068,164.985,75.54z
		 M190.56,101.124c-3.538-3.538-9.264-3.538-12.792,0l-76.761,76.761c-3.538,3.538-3.538,9.264,0,12.801
		c3.538,3.529,9.264,3.529,12.792,0l76.761-76.771C194.098,110.378,194.098,104.652,190.56,101.124z M216.153,126.708
		c-3.538-3.529-9.264-3.529-12.792,0l-76.771,76.761c-3.529,3.529-3.529,9.264,0,12.783c3.547,3.547,9.264,3.547,12.801,0
		l76.761-76.752C219.691,135.971,219.691,130.246,216.153,126.708z"/>
	<path style="fill:#FFFFFF;" d="M232.401,45.606c7.549,0,13.676,6.118,13.676,13.676c0,7.54-6.127,13.676-13.676,13.676
		s-13.676-6.127-13.676-13.676S224.851,45.606,232.401,45.606z"/>
</g>
<g>
</g>
<g>
</g>
<g>
</g>
<g>
</g>
<g>
</g>
<g>
</g>
<g>
</g>
<g>
</g>
<g>
</g>
<g>
</g>
<g>
</g>
<g>
</g>
<g>
</g>
<g>
</g>
<g>
</g>
</svg>
